<svg width="412" height="158" viewBox="0 0 412 158" fill="none" xmlns="http://www.w3.org/2000/svg">
<path d="M97.0633 108.308H117.277V124.174H97.0633V158H80.145V124.174H0.277344V105.003L75.6407 0H97.0633V108.308ZM80.145 108.308V19.1715L15.9872 108.308H80.145Z" fill="#222222"/>
<g clip-path="url(#clip0_724_3522)">
<path d="M262.694 141.317L251.993 50.3171C251.463 46.4935 251.35 42.6236 251.655 38.7755C252.194 32.8991 253.482 20.633 253.482 20.633C253.482 20.633 255.786 19.184 256.732 18.0218C257.678 16.8596 258.357 16.5728 258.156 14.681C257.954 12.7893 256.938 11.5617 254.835 11.0535C252.732 10.5454 240.481 10.1127 229.85 11.0535C219.219 11.9944 205.7 14.3943 195.386 16.8596C185.072 19.3249 169.657 26.0063 165.702 27.6716C161.748 29.337 157.803 30.7205 154.306 36.3807C150.81 42.0408 149.653 49.8794 149.653 55.615C149.653 61.3506 149.25 140.522 149.25 140.522C149.25 140.522 149.25 141.1 151.549 141.1C153.849 141.1 154.065 140.668 154.065 140.668L154.316 83.6238L167.584 78.98L192.051 86.9142L197.374 147.002C197.374 147.002 198.038 147.596 200.07 147.505C202.103 147.415 202.304 146.962 202.304 146.962L197.273 90.6122L198.933 88.977C198.933 88.977 208.347 88.9418 214.439 88.5795C220.532 88.2173 224.462 87.7091 224.462 87.7091V133.644C224.462 133.644 224.869 134.228 227.033 134.147C229.196 134.067 229.402 133.644 229.402 133.644V87.3972C229.402 87.3972 234.756 86.8941 240.305 86.24C245.854 85.586 250.87 84.4238 250.87 84.4238L257.914 141.679C257.914 141.679 258.322 142.333 260.691 142.117C263.061 141.9 262.694 141.317 262.694 141.317ZM158.548 64.2486C158.548 62.0701 160.173 58.2966 160.917 56.8476C161.662 55.3987 165.184 46.9764 172.293 46.7601C178.869 46.5588 184.871 54.3069 186.446 56.4854C187.546 57.9992 188.478 59.6289 189.223 61.3456L158.548 64.2486ZM223.556 57.708C223.18 58.1905 222.645 58.524 222.047 58.6488L197.469 60.6613C197.907 59.7957 198.504 59.0206 199.23 58.3772C200.168 57.5163 201.352 56.9708 202.616 56.8175C205.132 56.6716 208.15 56.8879 212.638 56.742C217.126 56.5961 223.878 56.093 223.878 56.093C223.955 56.3715 223.964 56.6644 223.904 56.9471C223.845 57.2298 223.718 57.4941 223.536 57.7181L223.556 57.708ZM248.179 70.286C247.052 70.8193 245.246 70.286 245.246 70.286L229.443 64.153L229.221 55.6854C229.221 55.6854 232.305 55.2175 236.169 54.6792C238.469 54.3572 240.642 53.7635 241.905 53.4717C243.168 53.1799 244.747 53.034 246.146 54.5333C247.545 56.0326 247.862 58.4426 247.862 58.4426C247.862 58.4426 248.722 65.9541 248.868 67.5994C249.014 69.2446 249.306 69.788 248.189 70.3213L248.179 70.286Z" fill="#F4C000"/>
</g>
<path d="M391.509 108.308H411.723V124.174H391.509V158H374.59V124.174H294.723V105.003L370.086 0H391.509V108.308ZM374.59 108.308V19.1715L310.433 108.308H374.59Z" fill="#222222"/>
<defs>
<clipPath id="clip0_724_3522">
<rect width="113.444" height="137" fill="white" transform="translate(149.277 10.5)"/>
</clipPath>
</defs>
</svg>
