<svg width="228" height="51" viewBox="0 0 228 51" fill="none" xmlns="http://www.w3.org/2000/svg">
<path fill-rule="evenodd" clip-rule="evenodd" d="M41.4463 15.4967C41.7209 16.8877 42.0423 17.9575 42.4187 18.7098C42.7903 19.4511 43.4237 19.8227 44.315 19.8227L41.9516 25.712C41.0208 28.015 40.0342 31.5137 38.9662 36.1831C37.9155 40.8722 37.5816 44.2044 37.9681 46.2011C38.3493 48.1718 39.2454 49.4603 40.6423 50.0784C42.033 50.6813 43.3674 50.9879 44.6583 50.9879C46.6259 50.9879 48.8924 50.7636 51.4552 50.2905C54.0109 49.8297 55.9371 49.3466 57.2333 48.8459C57.8417 48.6156 58.2204 48.2457 58.4038 47.7588C58.5717 47.2774 58.5106 46.2731 58.2164 44.7538C58.0587 43.9495 57.7082 43.5471 57.1359 43.5471C56.3479 43.5471 55.4427 43.7251 54.4318 44.0864C53.4172 44.4382 52.3895 44.7254 51.3506 44.9354C50.3072 45.163 48.6644 45.2672 46.4158 45.2672C45.8448 45.2672 45.4663 45.1992 45.2749 45.0623C45.0891 44.9354 44.9594 44.6959 44.8913 44.3522C44.7117 43.4296 44.8913 41.8218 45.4239 39.5164C45.9462 37.2047 46.4857 35.3022 47.0212 33.791L51.5954 33.6741C53.5363 33.6259 54.8296 33.5726 55.4844 33.492C56.14 33.4159 56.5577 33.2533 56.7336 33.004C56.9085 32.7442 56.972 32.2825 56.9023 31.6076C56.8508 30.9822 56.8439 30.5191 56.8668 30.212C56.8738 30.1346 56.8906 30.0247 56.917 29.8981C56.9389 29.7484 56.9496 29.6266 56.9279 29.517C56.756 28.6367 55.605 28.192 53.4821 28.192C51.8407 28.192 50.0247 28.3062 48.0281 28.5487C48.5886 26.6638 49.3793 24.4095 50.4049 21.789C50.9051 20.4689 51.3151 19.5869 51.6234 19.1301C51.9304 18.6665 52.3639 18.3878 52.9247 18.2657C53.4861 18.148 54.5656 18.0923 56.1816 18.0923C56.6226 18.0923 58.0459 18.1883 60.4691 18.3878C60.5583 18.3878 60.7254 18.4019 60.9723 18.42C61.2114 18.4389 61.3972 18.449 61.508 18.449C62.2154 18.449 62.5202 18.2178 62.4273 17.7491C62.3654 17.4368 62.0627 16.8211 61.519 15.9108C60.5497 14.2778 59.7345 13.2475 59.0559 12.8013C58.3787 12.3566 57.402 12.1353 56.1287 12.1353C53.3 12.1353 50.0829 12.3566 46.4764 12.8013C42.8602 13.2478 41.1871 14.1401 41.4463 15.4967Z" fill="#ED1C24"/>
<path fill-rule="evenodd" clip-rule="evenodd" d="M176.084 47.4443C176.685 46.5069 177.188 45.7746 177.586 45.2522C178.003 44.7148 178.795 43.6994 179.94 42.195C181.094 40.6971 182.232 39.2173 183.355 37.7743C184.469 36.3327 185.541 34.9917 186.548 33.7371C187.572 32.4903 188.705 31.1353 189.955 29.6766L188.44 36.383C187.892 38.8977 187.538 40.5683 187.382 41.392C187.234 42.2131 187.13 43.051 187.073 43.8934C187.018 44.7473 187.05 45.502 187.178 46.1645C187.341 47.0181 187.816 47.8105 188.573 48.5293C189.338 49.2629 190.165 49.838 191.073 50.2743C191.984 50.7097 192.675 50.9265 193.161 50.9265C193.813 50.9265 194.233 50.3717 194.401 49.2524C194.565 48.136 194.76 45.8195 194.964 42.3013C195.187 38.7957 195.537 35.3663 196.034 32.0284C196.526 28.6832 197.343 25.2132 198.498 21.6193C200.92 19.5054 202.031 17.9404 201.835 16.9145C201.708 16.2595 201.278 15.4661 200.549 14.5283C199.809 13.5925 199.098 13.1254 198.408 13.1254C197.75 13.1254 196.42 14.1078 194.4 16.0809C192.38 18.0576 190.158 20.4099 187.72 23.1521C185.295 25.8992 183.071 28.4783 181.049 30.9031C179.021 33.3168 177.797 34.8415 177.353 35.4502C178.047 32.145 178.67 29.4279 179.222 27.3078C179.787 25.1934 180.37 23.1494 180.968 21.1571C181.573 19.1704 181.942 17.8725 182.101 17.2644C182.248 16.6509 182.285 16.154 182.213 15.7765C182.153 15.4658 181.792 15.0044 181.15 14.3955C180.51 13.7841 179.814 13.2321 179.069 12.736C178.33 12.2416 177.813 11.9885 177.514 11.9885C176.99 11.9885 176.514 12.5022 176.083 13.5195C175.65 14.5394 175.193 16.0428 174.736 18.0297C174.269 20.0085 174.021 21.0464 173.998 21.1305C171.495 30.7916 169.945 37.2964 169.338 40.6383C168.735 43.9765 168.488 45.9591 168.607 46.6062C168.708 47.0765 169.338 47.7482 170.529 48.5872C171.704 49.425 172.673 49.8453 173.433 49.8453C173.927 49.8453 174.338 49.6827 174.675 49.3509C175.003 49.0191 175.473 48.3861 176.084 47.4443Z" fill="#ED1C24"/>
<path fill-rule="evenodd" clip-rule="evenodd" d="M226.405 16.3227C225.753 15.7367 225.067 15.1985 224.332 14.7111C223.595 14.2229 223.138 13.979 222.948 13.979C222.362 13.979 221.669 14.9 220.886 16.7172C220.102 18.5453 219.382 20.5195 218.738 22.6461C218.087 24.7735 217.634 26.3255 217.395 27.2825L215.587 27.8261C215 28.028 214.145 28.2194 213.025 28.4324C211.919 28.6472 211.11 28.7539 210.622 28.7539C209.925 28.7539 209.492 28.3103 209.327 27.4513C209.22 26.8968 209.374 25.8595 209.764 24.3402C210.171 22.8133 210.597 21.4748 211.039 20.3109C211.394 19.4798 211.692 18.7526 211.966 18.1697C212.22 17.5719 212.41 17.1153 212.511 16.7833C212.619 16.452 212.644 16.1416 212.593 15.8786C212.542 15.619 212.217 15.1649 211.603 14.5208C211.002 13.883 210.36 13.2927 209.674 12.771C208.997 12.2516 208.51 11.988 208.222 11.988C207.735 11.988 206.988 13.1249 205.978 15.3863C204.96 17.6474 204.089 20.0884 203.372 22.7273C202.641 25.3548 202.405 27.2632 202.627 28.4218C202.868 29.6686 203.585 30.9873 204.769 32.407C205.962 33.8254 207.121 34.5331 208.242 34.5331C208.845 34.5331 210.106 34.2741 212.033 33.7642C213.953 33.2603 215.42 32.8298 216.444 32.4796C216.265 33.0755 215.926 34.5019 215.431 36.7362C214.93 38.9713 214.51 41.0719 214.176 43.024C213.832 44.98 213.717 46.2606 213.832 46.8547C214.001 47.7188 214.784 48.473 216.172 49.1268C216.875 49.4594 217.555 49.8421 218.195 50.2705C218.847 50.6903 219.26 50.907 219.442 50.907C219.986 50.907 220.375 50.5303 220.582 49.7888C220.788 49.0281 220.94 47.8192 221.041 46.1621C221.139 44.5016 221.192 43.605 221.209 43.4445C221.67 39.7099 222.093 36.7633 222.468 34.594C222.843 32.4292 223.26 30.5411 223.73 28.9062C224.197 27.2825 224.915 25.0612 225.875 22.2607C226.207 21.2683 226.579 20.3217 226.96 19.4289C227.349 18.545 227.525 18.0078 227.495 17.8241C227.41 17.4225 227.048 16.9178 226.405 16.3227Z" fill="#ED1C24"/>
<path fill-rule="evenodd" clip-rule="evenodd" d="M38.9983 9.1673C39.0352 9.08043 39.0749 8.95459 39.108 8.89289C39.9142 6.56091 41.1869 8.15435 41.881 8.03284C42.9749 7.68833 43.6008 6.69649 43.8315 5.29438C43.974 4.4549 44.0581 2.73209 43.616 2.01574C43.3499 1.58328 42.4116 0.85963 40.7606 0.537855C37.1253 -0.17768 30.7095 -0.168208 25.1596 0.498344C21.0371 1.0036 15.6303 2.19138 8.45459 4.87707C6.00226 5.79503 2.16827 6.28703 1.03273 9.27556C0.112876 11.689 0.462027 12.9894 1.48599 13.6007C3.74292 14.9438 9.28129 12.9488 11.7835 12.1434C11.8527 12.1999 11.9258 12.2565 12.0307 12.339C11.1125 17.6046 9.08375 23.9359 8.4634 29.7652C7.19065 33.5713 4.73939 43.0167 6.78518 46.7526C11.0062 49.3588 13.5821 41.9704 13.2634 41.7214C14.3322 38.4669 17.6783 24.209 18.0738 20.3517C18.1683 19.3807 18.249 18.6019 18.3971 17.5943C18.6825 15.6353 18.718 13.6859 19.0439 11.8454C19.1333 11.3323 19.4237 10.9085 19.8383 10.5662C21.6756 9.03876 25.9866 9.01575 26.7204 9.01575C27.2914 8.87557 28.8799 8.62903 30.1457 8.21768C30.7049 8.03798 30.7097 8.85744 30.5584 9.80761C30.4068 10.7515 30.103 11.8273 30.0344 12.1604C29.8745 12.9515 29.7191 13.6288 29.535 14.4629C29.3049 15.5078 28.8289 17.6398 27.738 22.3971C25.2664 33.8787 23.3554 44.091 25.4594 49.6337C25.965 50.3836 27.6787 51.1852 28.1744 50.9614C29.4429 50.7235 30.355 50.1636 31.0135 49.4034C32.1656 48.0738 32.5252 46.1248 32.6213 44.1993C32.7948 40.673 33.2865 35.2727 34.0817 29.9438C34.6094 26.4073 36.2767 18.5375 37.6434 13.4175C38.1636 11.4733 38.6585 9.95212 38.9983 9.1673Z" fill="#ED1C24"/>
<path fill-rule="evenodd" clip-rule="evenodd" d="M73.1063 50.9879C73.5692 50.9879 73.8781 50.6348 74.0273 49.9311C74.1666 49.2278 74.4885 47.1659 74.9792 43.7547C75.4714 40.3548 76.1401 36.6916 76.9876 32.7588C77.8346 28.8342 79.0702 24.1822 80.7049 18.7891C81.3239 18.6165 82.4987 18.4923 84.2116 18.3959C85.9264 18.305 87.1909 18.1369 88.0042 17.8993C88.8139 17.6468 89.1374 17.1259 88.978 16.327C88.8712 15.7611 88.5437 15.1249 87.9986 14.4534C87.4514 13.7698 86.7085 13.1893 85.7583 12.7139C84.8168 12.2289 83.7552 11.988 82.582 11.988C82.2774 11.988 81.8108 12.024 81.1859 12.1009C80.4946 12.1764 79.4372 12.2492 78.0249 12.3323C76.597 12.4067 75.536 12.4817 74.8331 12.5453C70.7955 12.8527 67.9673 13.1956 66.3326 13.5769C64.7022 13.9503 63.9676 14.589 64.1424 15.4967C64.6709 18.213 65.7803 19.5664 67.4884 19.5664C67.7543 19.5664 69.6581 19.4167 73.1966 19.1193C72.7812 20.7209 72.1876 23.104 71.4129 26.283C70.6497 29.4743 69.9624 32.4474 69.3596 35.214C68.7388 37.9776 68.2319 40.5453 67.8237 42.9076C67.403 45.2818 67.2631 46.7808 67.3878 47.4222C67.5069 48.0292 67.939 48.5934 68.6888 49.1531C69.4448 49.6957 70.2726 50.1368 71.1841 50.4781C72.0979 50.8202 72.7449 50.9879 73.1063 50.9879Z" fill="#ED1C24"/>
<path fill-rule="evenodd" clip-rule="evenodd" d="M133.659 30.6515C133.225 33.2354 132.506 35.6388 131.516 37.8969C130.514 40.155 129.416 41.9661 128.221 43.3384C127.021 44.7199 125.932 45.4114 124.958 45.4114C124.543 45.4114 124.105 45.1026 123.632 44.4794C123.168 43.8569 122.829 43.0109 122.617 41.952C122.133 39.4403 122.105 36.8044 122.535 34.0898C122.963 31.3646 123.673 28.8745 124.656 26.5948C125.652 24.3318 126.743 22.5018 127.933 21.107C129.124 19.7133 130.168 19.0191 131.075 19.0191C132.221 19.0191 133.079 20.5019 133.659 23.4753C134.086 25.686 134.087 28.0775 133.659 30.6515ZM138.871 18.9366C138.229 17.4576 137.571 16.3199 136.922 15.5202C136.272 14.7308 135.766 14.3311 135.435 14.3311C135.245 14.3311 134.844 14.4851 134.245 14.8115C133.646 15.1254 133.211 15.3773 132.962 15.5546C132.234 14.6921 131.383 13.8824 130.407 13.1203C129.44 12.3634 128.647 11.9883 128.057 11.9883C127.15 11.9883 125.846 12.7872 124.169 14.3925C122.493 15.9992 120.878 18.1667 119.316 20.8792C117.76 23.6065 116.611 26.7263 115.866 30.2496C115.116 33.778 115.107 37.3892 115.825 41.0722C116.248 43.274 117.055 45.1226 118.219 46.6173C119.386 48.1158 120.686 49.2113 122.105 49.9181C123.525 50.635 124.833 50.9885 126.027 50.9885C128.839 50.9885 131.54 49.7125 134.131 47.1656C136.714 44.6109 138.622 41.2424 139.852 37.068C141.084 32.9031 141.273 28.5717 140.403 24.0934C140.023 22.1443 139.516 20.4213 138.871 18.9366ZM161.144 23.439C160.327 24.5469 159.215 25.5761 157.804 26.5363C156.398 27.5073 154.923 28.2672 153.376 28.8117C154.218 24.0679 154.546 21.1703 154.346 20.132C154.231 19.5488 153.844 18.9734 153.192 18.4051C154.514 17.9948 155.989 17.794 157.62 17.794C158.909 17.794 159.943 18.0379 160.724 18.5542C161.495 19.0622 161.952 19.6968 162.097 20.4586C162.273 21.349 161.951 22.3419 161.144 23.439ZM158.376 39.7518C157.481 41.0267 156.215 42.073 154.588 42.8889C152.956 43.7213 151.248 44.1246 149.468 44.1246C150.223 41.5314 150.809 39.5304 151.234 38.1481C151.645 36.7543 152.01 35.385 152.301 33.994C153.421 33.6616 154.451 33.4919 155.396 33.4919C157.725 33.4919 159.05 34.3368 159.375 35.9931C159.609 37.2174 159.281 38.4747 158.376 39.7518ZM166.84 26.4151C168.083 24.436 168.503 22.3695 168.083 20.2343C167.616 17.7997 166.247 15.8222 163.976 14.2921C161.72 12.7598 158.937 11.9886 155.656 11.9886C154.226 11.9886 152.27 12.2121 149.809 12.657C147.446 13.0713 145.693 13.4919 144.54 13.91C143.398 14.3314 142.913 14.9906 143.094 15.8961C143.278 16.8495 143.737 17.7997 144.482 18.7604C145.221 19.7109 146.201 20.293 147.429 20.5146C146.923 24.9553 146.318 28.7303 145.585 31.8479C144.854 34.9715 144.16 37.4047 143.493 39.1602C142.83 40.9028 142.278 42.421 141.839 43.6916C141.395 44.9557 141.261 46.0503 141.442 46.9783C141.492 47.2373 141.865 47.7017 142.564 48.3618C143.263 49.011 144.012 49.6167 144.807 50.1641C145.604 50.707 146.178 50.9887 146.538 50.9887C147.068 50.9887 147.466 50.7471 147.743 50.2683C148.026 49.7817 148.33 48.9149 148.654 47.6397C150.561 49.8808 152.411 50.9887 154.216 50.9887C155.931 50.9887 157.794 50.1782 159.795 48.5295C161.791 46.8825 163.401 44.9132 164.613 42.634C165.825 40.3391 166.263 38.3121 165.92 36.5622C165.74 35.6345 165.309 34.6611 164.629 33.6616C163.952 32.6514 162.983 31.7708 161.72 30.9935C163.883 29.9067 165.589 28.3906 166.84 26.4151ZM106.853 24.7469C105.793 26.1491 104.403 27.4681 102.695 28.714C100.969 29.9476 99.3604 30.8073 97.8474 31.2679C98.0471 29.6694 98.4518 27.388 99.0708 24.4103C99.4354 22.6388 99.7178 21.4624 99.9231 20.8691C100.108 20.2689 100.423 19.8494 100.838 19.6053C101.263 19.355 101.982 19.1967 103.013 19.1212C103.28 19.0868 103.691 19.0624 104.241 19.0624C106.578 19.0624 107.879 19.7718 108.156 21.195C108.348 22.1676 107.913 23.3567 106.853 24.7469ZM112.781 16.6287C111.651 15.2994 110.129 14.1885 108.178 13.306C106.246 12.424 104.031 11.9886 101.528 11.9886C100.095 11.9886 98.5882 12.1461 96.9954 12.4616C95.398 12.7661 94.0706 13.2345 93.0026 13.8394C91.933 14.4515 91.4725 15.1473 91.6246 15.9486C92.1102 18.4208 92.9978 19.9666 94.3081 20.566C93.0955 25.7469 92.1217 29.7543 91.4098 32.5816C90.7 35.4164 89.9579 38.2663 89.1979 41.158C88.4337 44.0326 87.9874 45.8347 87.8526 46.5312C87.7303 47.2365 87.7026 47.8178 87.7867 48.2622C87.9204 48.9433 88.2031 49.388 88.6497 49.6037C89.0824 49.8212 89.8183 50.0394 90.8375 50.2675C91.3532 50.3877 91.9071 50.5357 92.4751 50.7197C93.0402 50.8959 93.4326 50.9879 93.648 50.9879C94.2774 50.9879 94.7523 50.6345 95.058 49.9406C95.3529 49.2462 95.6073 48.1764 95.815 46.7469C96.0176 45.3134 96.2853 43.3909 96.6305 40.9886C96.9737 38.5935 97.4302 36.2615 97.9729 33.9931C99.6311 36.484 100.998 37.7283 102.071 37.7283C103.335 37.7283 105.09 36.6612 107.314 34.5249C109.548 32.3883 111.443 29.9627 113.005 27.2443C114.565 24.5264 115.185 22.3257 114.85 20.6204C114.601 19.3033 113.905 17.9713 112.781 16.6287Z" fill="#ED1C24"/>
</svg>
