<svg width="160" height="39" viewBox="0 0 160 39" fill="none" xmlns="http://www.w3.org/2000/svg">
<path d="M126.343 31.0323C125.663 31.8486 124.574 32.6592 122.805 32.6592C120.765 32.6592 119.676 30.8943 119.676 27.2323C119.676 22.8919 120.898 20.5809 123.214 20.5809C124.574 20.5809 125.392 20.7188 126.343 20.8511V31.0323ZM111.927 27.3703C111.927 35.1082 114.785 38.5001 120.362 38.5001C123.762 38.5001 126.21 37.4135 127.437 35.5164L127.847 38.0977H133.965V15.9703C131.517 15.1539 128.797 14.6135 123.491 14.6135C116.006 14.4756 111.927 19.0919 111.927 27.3703ZM152.051 14.4756C148.243 14.4756 145.933 15.6943 144.296 17.4592L143.755 14.878H137.768V37.8102H145.247V22.0756C145.789 21.2592 147.425 20.4486 148.785 20.4486C150.963 20.4486 152.184 21.6674 152.184 23.8405V38.0919H159.663V22.7539C159.668 17.327 157.22 14.4756 152.051 14.4756ZM101.59 14.4756C98.6001 14.4756 96.5605 15.1539 94.9242 16.3727V6.47314H87.3072V38.0919H94.7859V22.0756C95.3275 21.2592 96.9638 20.4486 98.3236 20.4486C100.502 20.4486 101.723 21.6674 101.723 23.8405V38.0919H109.202V22.7539C109.346 17.327 106.897 14.4756 101.59 14.4756ZM78.7396 32.1188C75.0693 32.1188 73.1622 29.8135 73.1622 26.2837C73.1622 22.8919 75.0636 20.8568 78.7396 20.8568C80.6409 20.8568 82.2772 21.3972 83.7695 22.2135L84.7202 15.9703C82.6806 15.1539 80.5026 14.4756 76.8324 14.4756C69.3537 14.4756 65.2687 18.6837 65.2687 26.5539C65.2687 34.4241 69.0829 38.5001 76.5616 38.5001C80.0993 38.5001 83.637 37.4135 84.9968 36.465L84.0461 30.6299C82.4098 31.4405 80.7792 32.1188 78.7396 32.1188ZM51.6711 32.665C49.4931 32.665 48.2717 31.4462 48.2717 29.2731V15.0217H40.793V30.2217C40.793 35.7866 43.38 38.5001 48.5482 38.5001C52.3567 38.5001 54.6671 37.2813 56.3035 35.5164L56.8451 37.9597H62.964V14.8837H55.4796V31.0323C55.4796 31.0323 53.0308 32.665 51.6711 32.665Z" fill="#E0001A"/>
<path d="M38.7515 9.99716H35.3521C34.943 8.91062 33.0416 7.28369 30.4546 7.28369C28.9566 7.28369 27.4643 7.69186 26.237 8.50245C26.237 8.50245 24.4682 9.72121 21.887 11.8943L13.8609 18.5515C13.181 19.2298 12.3629 19.5 11.4122 19.5H1.34648C1.07568 19.5 1.2082 19.638 1.2082 19.9082C1.88808 22.0813 3.79521 24.1164 7.05633 24.1164L4.74589 26.5596C4.60761 26.6976 4.60761 26.9678 4.88417 26.9678H13.8609C20.3889 26.9678 24.3357 24.1164 27.0552 20.1841C27.1935 19.9139 27.4643 19.5058 27.5968 19.2356C27.7351 19.2356 27.7351 19.3736 27.7351 19.3736C27.0552 21.0005 25.4246 24.2601 22.296 26.1572C21.3454 26.6976 20.9363 26.9736 19.4382 27.5139C19.3 27.5139 19.3 27.6519 19.3 27.7841L22.9702 37.9596H25.0098L21.6104 28.5947C24.0591 28.5947 29.2274 28.0543 32.0852 23.576C34.943 18.9596 35.8937 11.7678 35.8937 11.7678L38.884 10.4111C39.0223 10.2731 39.0223 9.99716 38.7515 9.99716ZM31.1345 13.3947C30.1838 13.3947 29.3657 12.5784 29.3657 11.6298C29.3657 10.6813 30.1838 9.86493 31.1345 9.86493C31.5436 9.86493 31.8144 10.0029 32.0852 10.1351C31.9469 10.1351 31.9469 10.1351 31.8144 10.1351C31.2728 10.1351 30.8637 10.5433 30.8637 11.0837C30.8637 11.6241 31.2728 12.0323 31.8144 12.0323C32.356 12.0323 32.7651 11.6241 32.7651 11.0837V10.9457C32.9033 11.2159 32.9033 11.3539 32.9033 11.6241C32.9033 12.5784 32.0852 13.3947 31.1345 13.3947Z" fill="#E0001A"/>
<path d="M24.1992 30.0837L27.057 37.9539H29.0967L26.1063 29.6755C25.6973 29.8135 24.8791 29.9515 24.1992 30.0837Z" fill="#E0001A"/>
<path d="M12.912 17.5971L17.5386 13.7971C18.4893 11.2159 19.44 8.50242 20.529 6.3351C21.0706 7.55386 21.4797 8.77837 22.027 9.99712C24.614 7.96203 26.1063 6.73752 28.1459 6.19712C26.7804 3.21346 25.968 1.44856 25.5589 0.5H15.4932C14.6751 2.2649 11.414 8.91634 7.60547 18.1433H11.2757C11.9556 18.1433 12.5029 18.0053 12.912 17.5971Z" fill="#E0001A"/>
<path d="M0.667969 37.9539H9.78298L12.7733 28.4568H4.06737C2.97841 31.3082 1.88945 34.4299 0.667969 37.9539Z" fill="#E0001A"/>
<path d="M34.2627 22.6216C32.7646 25.7432 31.2724 27.3701 27.8672 29.0028L30.9958 37.9596H39.8342C38.2037 32.5269 36.164 27.3701 34.2627 22.6216Z" fill="#E0001A"/>
</svg>
