<svg width="156" height="39" viewBox="0 0 156 39" fill="none" xmlns="http://www.w3.org/2000/svg">
<g clip-path="url(#clip0_702_2672)">
<path d="M125.301 27.9125L126.233 9.55958L118.058 5.4326L118.268 1.30347H154.269L154.072 5.20332L144.517 9.55958L143.572 28.1417L152.452 32.7294L152.195 37.7757H115.082L115.316 33.188L125.301 27.9125Z" fill="#FF7313" stroke="#222222" stroke-width="1.44852" stroke-miterlimit="2.61"/>
<path d="M105.259 18.9279C111.43 15.3666 110.875 9.28544 110.875 9.28544C109.532 0.47649 102.587 1.22218 102.587 1.22218L55.3389 1.25218L55.0603 5.38344L63.0679 9.28544L62.2536 27.8869L53.7104 33.1538L53.4297 37.7415H99.2615C99.2615 37.7415 108.733 38.2708 110.764 29.0183C110.764 29.0226 111.981 20.88 105.259 18.9279ZM90.1055 25.757C90.1055 25.757 89.8269 28.2812 86.3213 28.3969H80.8765L81.2065 21.63H86.6599C89.5505 21.5228 90.8361 24.1027 90.1055 25.7655V25.757ZM90.8554 12.4718C90.8554 12.4718 90.7161 15.2574 86.9984 15.2574H81.5536L81.8858 8.90189H87.6134C89.7712 8.85689 91.3268 10.4533 90.8554 12.4846V12.4718Z" fill="#FF7313" stroke="#222222" stroke-width="1.44852" stroke-miterlimit="2.61"/>
<path d="M37.6953 1.26929H17.9818C9.39141 1.26929 2.06311 8.4583 1.61099 17.3273L1.39671 21.6857C0.946726 30.5546 7.54648 37.7415 16.1369 37.7415H35.8504C44.4429 37.7415 51.7712 30.5546 52.2212 21.6857L52.4355 17.3273C52.8876 8.4583 46.2879 1.26929 37.6953 1.26929ZM32.272 10.8496L31.4299 27.4562C31.2992 29.9889 29.2057 32.0438 26.7522 32.0438H25.6808C23.2252 32.0438 21.3395 29.9889 21.4681 27.4562L22.3124 10.8496C22.4409 8.31687 24.5344 6.26195 26.99 6.26195H28.0614C30.5192 6.26195 32.4048 8.31687 32.272 10.8496Z" fill="#FF7313" stroke="#222222" stroke-width="1.44852" stroke-miterlimit="2.61"/>
<path d="M146.16 24.3555C146.157 23.4728 146.497 22.6235 147.109 21.9877C147.406 21.6775 147.762 21.4305 148.156 21.2618C148.551 21.0931 148.975 21.0061 149.404 21.0061C149.833 21.0061 150.258 21.0931 150.652 21.2618C151.047 21.4305 151.403 21.6775 151.699 21.9877C152.309 22.6257 152.649 23.4741 152.649 24.3566C152.649 25.239 152.309 26.0875 151.699 26.7254C151.403 27.035 151.047 27.2814 150.653 27.4497C150.259 27.618 149.835 27.7048 149.406 27.7048C148.978 27.7048 148.554 27.618 148.16 27.4497C147.766 27.2814 147.41 27.035 147.114 26.7254C146.504 26.0923 146.164 25.2473 146.164 24.3683L146.16 24.3555ZM149.406 24.754H148.687V26.0247H148.084V22.6605H149.76C149.966 22.6583 150.169 22.7127 150.346 22.8177C150.523 22.9228 150.668 23.0745 150.765 23.2562C150.838 23.3946 150.877 23.5479 150.881 23.7041C150.881 23.8649 150.842 24.0233 150.765 24.1648C150.629 24.4029 150.408 24.58 150.146 24.6598L151.003 26.0826H150.214L149.415 24.7519L149.406 24.754ZM148.687 24.1326C149.044 24.1326 149.351 24.1091 149.758 24.1091H149.811C149.897 24.1017 149.979 24.0755 150.053 24.0326C150.128 23.9896 150.191 23.9309 150.24 23.8605C150.266 23.8133 150.278 23.76 150.276 23.7062C150.276 23.6488 150.262 23.5924 150.236 23.5412C150.186 23.4577 150.114 23.3891 150.029 23.3427C149.943 23.2964 149.847 23.2739 149.749 23.2777H148.687V24.1348V24.1326ZM147.551 22.4463C147.061 22.961 146.787 23.6446 146.787 24.3555C146.787 25.0663 147.061 25.7499 147.551 26.2647C147.791 26.5129 148.078 26.7103 148.396 26.8451C148.713 26.9799 149.055 27.0494 149.4 27.0494C149.745 27.0494 150.087 26.9799 150.404 26.8451C150.722 26.7103 151.009 26.5129 151.249 26.2647C151.741 25.7509 152.016 25.067 152.016 24.3555C152.016 23.644 151.741 22.96 151.249 22.4463C151.01 22.1964 150.723 21.9976 150.406 21.8618C150.088 21.7259 149.746 21.6559 149.4 21.6559C149.054 21.6559 148.712 21.7259 148.395 21.8618C148.077 21.9976 147.79 22.1964 147.551 22.4463Z" fill="#222222"/>
</g>
<defs>
<clipPath id="clip0_702_2672">
<rect width="154.396" height="38" fill="white" transform="translate(0.632812 0.5)"/>
</clipPath>
</defs>
</svg>
