<svg width="205" height="45" viewBox="0 0 205 45" fill="none" xmlns="http://www.w3.org/2000/svg">
<path d="M85.7356 33.3463H68.1698L90.5954 3.67178C91.0841 3.02019 90.9483 2.06995 90.2967 1.58126C90.0524 1.39121 89.7266 1.28261 89.4008 1.28261H56.957C54.1063 1.28261 51.7714 3.61748 51.7714 6.46819C51.7714 9.31891 54.1063 11.6538 56.957 11.6538H71.5363L49.0293 41.3555C48.5134 42.0071 48.6492 42.9302 49.3008 43.446C49.5723 43.6632 49.8981 43.7718 50.2239 43.7446H85.7084C88.5592 43.6089 90.7583 41.1654 90.6225 38.2876C90.4868 35.6269 88.3691 33.5092 85.7084 33.3735V33.3463H85.7356ZM199.112 1.28261C196.262 1.28261 193.927 3.61748 193.927 6.46819V23.8711L165.908 1.63556C165.284 1.11971 164.334 1.20116 163.818 1.85276C163.601 2.12425 163.492 2.45005 163.492 2.80299V38.5591C163.492 41.4098 165.827 43.7446 168.678 43.7446C171.528 43.7446 173.863 41.4369 173.863 38.5591V21.1561L201.882 43.4188C202.533 43.9347 203.484 43.8261 203.999 43.1745C204.217 42.903 204.325 42.5772 204.325 42.2514V6.46819C204.298 3.59033 201.99 1.28261 199.112 1.28261ZM124.967 34.3237C113.102 34.3237 104.252 28.0793 104.252 22.4865C104.252 16.8937 113.13 10.6492 124.967 10.6492C136.831 10.6492 145.682 16.8937 145.682 22.4865C145.682 28.0793 136.858 34.3237 124.967 34.3237ZM124.967 0.278076C107.808 0.278076 93.8805 10.2148 93.8805 22.4865C93.8805 34.7581 107.808 44.6949 124.967 44.6949C142.125 44.6949 156.053 34.7581 156.053 22.4865C156.053 10.2148 142.125 0.278076 124.967 0.278076ZM22.9113 34.3509C16.3683 34.3509 11.0469 29.0567 11.0469 22.5136C11.0469 15.9706 16.3411 10.6492 22.8842 10.6492C29.4272 10.6492 34.7486 15.9434 34.7486 22.4865V22.5136C34.7486 29.0295 29.4544 34.3237 22.9113 34.3509ZM22.9113 0.278076C10.6397 0.278076 0.702931 10.2148 0.675781 22.4865C0.675781 34.7581 10.6125 44.6949 22.8842 44.722C35.1558 44.722 45.0926 34.7853 45.1197 22.5136V22.4865C45.0926 10.2148 35.1558 0.278076 22.9113 0.278076Z" fill="#005BFF"/>
</svg>
