<svg width="19" height="28" viewBox="0 0 19 28" fill="none" xmlns="http://www.w3.org/2000/svg">
<path d="M9.5 0C6.98044 0 4.56408 1.01557 2.78249 2.8233C1.00089 4.63103 0 7.08283 0 9.63934C0 14.9639 9.5 28 9.5 28C9.5 28 19 14.9639 19 9.63934C19 7.08283 17.9991 4.63103 16.2175 2.8233C14.4359 1.01557 12.0196 0 9.5 0ZM9.5 13.3115C8.56054 13.3115 7.64217 13.0288 6.86104 12.4992C6.0799 11.9696 5.47111 11.2169 5.1116 10.3362C4.75208 9.45554 4.658 8.48646 4.84128 7.55154C5.02456 6.61661 5.47697 5.75782 6.14127 5.08378C6.80557 4.40974 7.65191 3.95071 8.57331 3.76474C9.49473 3.57877 10.4498 3.67423 11.3178 4.03902C12.1857 4.40381 12.9276 5.02156 13.4495 5.81415C13.9714 6.60674 14.25 7.53856 14.25 8.4918C14.25 9.77006 13.7496 10.996 12.8588 11.8998C11.968 12.8037 10.7598 13.3115 9.5 13.3115Z" fill="#F4C000"/>
</svg>
