<svg width="76" height="47" viewBox="0 0 76 47" fill="none" xmlns="http://www.w3.org/2000/svg">
<path d="M12.8929 1.03125V21.4496H9.48986V3.96954H3.69994V21.4496H0.296875V1.03125H12.8929Z" fill="#1928DC"/>
<path d="M19.0353 20.642C18.0159 19.7057 17.2744 18.5064 16.8927 17.1759C16.3339 15.3087 16.0681 13.3662 16.1049 11.4175C16.0689 9.41454 16.3344 7.41756 16.8927 5.49366C17.2676 4.11943 18.008 2.87257 19.0353 1.88579C19.9335 1.11539 21.0778 0.691895 22.2612 0.691895C23.4445 0.691895 24.5888 1.11539 25.487 1.88579C26.5198 2.86372 27.2591 4.11049 27.6218 5.48578C28.1808 7.41223 28.4464 9.4119 28.4095 11.4175C28.4461 13.3688 28.1804 15.3139 27.6218 17.1838C27.2498 18.5148 26.5131 19.7154 25.4949 20.6499C24.5789 21.3884 23.4378 21.7911 22.2612 21.7911C21.0845 21.7911 19.9434 21.3884 19.0275 20.6499L19.0353 20.642ZM19.8703 15.4744C20.0035 16.3648 20.3316 17.2148 20.8314 17.9637C20.9888 18.1994 21.2003 18.394 21.4484 18.531C21.6965 18.6681 21.9739 18.7437 22.2573 18.7514C23.1001 18.7514 23.7618 18.137 24.2502 16.9081C24.8154 15.1272 25.0608 13.2603 24.975 11.3939C24.9966 9.97398 24.8859 8.55514 24.6441 7.1558C24.517 6.23572 24.1918 5.35418 23.6909 4.572C23.5504 4.31569 23.3435 4.10188 23.0919 3.95294C22.8404 3.80401 22.5535 3.72543 22.2612 3.72543C21.9688 3.72543 21.6819 3.80401 21.4304 3.95294C21.1788 4.10188 20.9719 4.31569 20.8314 4.572C20.3365 5.35502 20.0093 6.23211 19.8703 7.14795C19.6257 8.54435 19.5123 9.96056 19.5316 11.3781C19.5101 12.7513 19.6235 14.1233 19.8703 15.4744Z" fill="#1928DC"/>
<path d="M39.6517 1.03125V8.86144H37.8478C37.1939 8.8973 36.5408 8.77856 35.9415 8.51484C35.4684 8.26374 35.1061 7.84524 34.9253 7.34109C34.6846 6.63973 34.5751 5.90005 34.6023 5.15904V1.03125H31.1992V5.14328C31.1003 6.91706 31.6303 8.66889 32.696 10.0903C33.2555 10.7118 33.9492 11.198 34.7243 11.5119C35.4996 11.8258 36.336 11.9592 37.1703 11.9021H39.6517V21.4496H43.0548V1.03125H39.6517Z" fill="#1928DC"/>
<path d="M57.9845 3.96954H53.9907V21.4496H50.5876V3.96954H46.5938V1.03125H57.9845V3.96954Z" fill="#1928DC"/>
<path d="M64.8329 1.02731H67.5584C68.6814 0.966641 69.7977 1.24081 70.7645 1.81506C71.6086 2.37907 72.2645 3.18299 72.6477 4.12316C73.116 5.28956 73.4103 6.51842 73.5218 7.77042L75.0973 21.4063H71.6944L70.5916 11.8824H64.8169V21.4457H61.4141V1.02731H64.8329ZM64.8329 8.98353H70.2685L70.1269 7.80978C70.0638 7.05558 69.9075 6.31208 69.6616 5.59624C69.4894 5.11457 69.1516 4.70976 68.7084 4.454C68.1371 4.18008 67.5056 4.05541 66.873 4.09164H64.8329V8.98353Z" fill="#1928DC"/>
<path d="M4.04655 25.5143C5.18117 25.4843 6.30105 25.7766 7.2763 26.3572C8.23249 26.9658 8.97792 27.8543 9.41109 28.9016C9.96446 30.2362 10.2328 31.6717 10.1988 33.1161C10.2339 34.4823 9.98996 35.8412 9.48201 37.1099C9.10568 38.0845 8.49732 38.9525 7.70958 39.6386C7.17693 40.1404 6.48618 40.4412 5.75595 40.4894C5.37772 40.5158 4.99828 40.4591 4.64439 40.3229C4.29051 40.1868 3.97079 39.9747 3.70781 39.7016V45.9327H0.296875V25.5143H4.04655ZM3.89687 36.0859C3.98079 36.4508 4.15403 36.7891 4.40103 37.0705C4.4815 37.1696 4.58213 37.2502 4.69623 37.3073C4.81033 37.3643 4.93527 37.3964 5.06273 37.4014C5.36174 37.3848 5.64331 37.2553 5.85048 37.039C6.16863 36.7084 6.39649 36.3015 6.51217 35.8574C6.70356 35.1786 6.79122 34.4748 6.77215 33.7699C6.77215 31.8635 6.54368 30.5165 6.07105 29.7288C5.87755 29.3648 5.58625 29.062 5.22995 28.8546C4.87365 28.6472 4.46651 28.5435 4.05442 28.555H3.70781V34.5104C3.69731 35.0418 3.76095 35.572 3.89687 36.0859Z" fill="#1928DC"/>
<path d="M13.9573 45.1161C12.9334 44.1803 12.1913 42.9771 11.8146 41.6421C11.2553 39.775 10.9896 37.8324 11.0269 35.8837C10.9908 33.8833 11.2563 31.8889 11.8146 29.9677C12.1864 28.5944 12.9274 27.3493 13.9573 26.3677C14.8555 25.5973 15.9998 25.1738 17.1831 25.1738C18.3665 25.1738 19.5107 25.5973 20.4089 26.3677C21.4372 27.3461 22.1758 28.589 22.5437 29.9599C23.1021 31.8864 23.3677 33.886 23.3314 35.8916C23.382 37.8408 23.1295 39.7861 22.5831 41.6578C22.213 42.9897 21.4761 44.1908 20.4562 45.1239C19.5427 45.868 18.4006 46.2743 17.2225 46.2743C16.0443 46.2743 14.9023 45.868 13.9888 45.1239L13.9573 45.1161ZM14.8002 39.9563C14.9383 40.8246 15.2635 41.6524 15.7533 42.3826C15.9092 42.6162 16.1183 42.8095 16.3634 42.9464C16.6086 43.0834 16.8828 43.1601 17.1634 43.1703C18.0037 43.1703 18.6654 42.5559 19.1486 41.327C19.7215 39.5478 19.9696 37.6799 19.8811 35.8128C19.9026 34.3929 19.7918 32.9741 19.5503 31.5747C19.4196 30.6605 19.0946 29.7848 18.5971 29.0067C18.4566 28.7504 18.2497 28.5366 17.9982 28.3876C17.7466 28.2387 17.4597 28.1601 17.1673 28.1601C16.875 28.1601 16.5881 28.2387 16.3366 28.3876C16.085 28.5366 15.8782 28.7504 15.7376 29.0067C15.2418 29.8129 14.9223 30.7149 14.8002 31.6535C14.5562 33.05 14.4428 34.4662 14.4615 35.8837C14.4417 37.249 14.5551 38.613 14.8002 39.9563Z" fill="#1928DC"/>
<path d="M25.6515 30.125C26.4821 28.5865 27.7896 27.3591 29.3775 26.6274C31.2366 25.8202 33.2523 25.438 35.2778 25.5088V28.5731C32.8515 28.5731 31.0003 29.1797 29.7163 30.4085C28.4322 31.6375 27.7863 33.4572 27.7863 35.9228C27.7863 38.3884 28.4244 40.0191 29.7084 41.1691C30.9924 42.3193 32.8593 42.9022 35.2778 42.9022V45.9272C31.7959 45.9272 29.1097 45.0869 27.2191 43.4064C25.3285 41.7258 24.3832 39.2182 24.3832 35.8834C24.3084 33.8872 24.745 31.905 25.6515 30.125Z" fill="#1928DC"/>
<path d="M37.1107 30.1307C37.9419 28.5898 39.2528 27.362 40.8446 26.6331C42.6911 25.8187 44.6959 25.4258 46.7133 25.483V28.5474C44.2949 28.5474 42.4437 29.1539 41.1518 30.3828C39.8599 31.6117 39.2218 33.4629 39.2218 35.8891C39.2218 38.3154 39.8599 39.9854 41.1439 41.1355C42.428 42.2857 44.2949 42.8686 46.7054 42.8686V45.9329C43.2236 45.9329 40.5374 45.0926 38.6468 43.4121C36.7562 41.7316 35.8109 39.2239 35.8109 35.8891C35.7458 33.8902 36.1932 31.9079 37.1107 30.1307Z" fill="#1928DC"/>
<path d="M51.7078 25.5135V32.8002L57.4899 27.924L60.8929 25.0566V45.9319H57.4899V32.0361L51.7078 36.9122V45.9319H48.2969V25.5135H51.7078Z" fill="#1928DC"/>
<path d="M65.9035 25.5095V32.7962L71.6855 27.92L75.0724 25.0684V45.9279H71.6696V32.032L65.8875 36.9082V45.9279H62.5V25.5095H65.9035Z" fill="#1928DC"/>
</svg>
