<svg width="56" height="52" viewBox="0 0 56 52" fill="none" xmlns="http://www.w3.org/2000/svg">
<g clip-path="url(#clip0_724_3995)">
<path d="M52.1695 34.9836V44.9469C52.1695 46.3919 51.5954 47.7778 50.5736 48.7996C49.5518 49.8214 48.1659 50.3954 46.7209 50.3954H6.63609C5.19104 50.3954 3.80516 49.8214 2.78336 48.7996C1.76155 47.7778 1.1875 46.3919 1.1875 44.9469V14.037C1.1875 12.5919 1.76155 11.206 2.78336 10.1842C3.80516 9.16243 5.19104 8.58838 6.63609 8.58838H25.0247" stroke="#222222" stroke-width="2.37446" stroke-linecap="round" stroke-linejoin="round"/>
<path d="M44.8594 8.58838H46.713C48.1581 8.58838 49.544 9.16243 50.5658 10.1842C51.5876 11.206 52.1616 12.5919 52.1616 14.037V24.0002" stroke="#222222" stroke-width="2.37446" stroke-linecap="round" stroke-linejoin="round"/>
<path d="M44.3343 24.002H54.812V34.9807H44.3343C42.8781 34.9807 41.4816 34.4022 40.4519 33.3725C39.4222 32.3428 38.8438 30.9463 38.8438 29.4901C38.8444 28.0343 39.4231 26.6384 40.4527 25.6093C41.4823 24.5801 42.8785 24.002 44.3343 24.002Z" stroke="#222222" stroke-width="2.37446" stroke-linecap="round" stroke-linejoin="round"/>
<path d="M6.625 13.772H52.1631" stroke="#222222" stroke-width="2.37446" stroke-linecap="round" stroke-linejoin="round"/>
<path d="M16.3828 13.7718L37.1237 2.06808C37.4712 1.87209 37.8545 1.74756 38.2508 1.70184C38.6472 1.65612 39.0487 1.69012 39.4317 1.80185C39.8148 1.91357 40.1716 2.10076 40.4812 2.35241C40.7908 2.60406 41.047 2.91508 41.2347 3.26719L46.8297 13.7718" stroke="#222222" stroke-width="2.37446" stroke-linecap="round" stroke-linejoin="round"/>
<path d="M44.9524 31.3652C45.9875 31.3652 46.8266 30.5261 46.8266 29.4909C46.8266 28.4558 45.9875 27.6167 44.9524 27.6167C43.9172 27.6167 43.0781 28.4558 43.0781 29.4909C43.0781 30.5261 43.9172 31.3652 44.9524 31.3652Z" fill="#222222"/>
</g>
<defs>
<clipPath id="clip0_724_3995">
<rect width="56" height="51.0849" fill="white" transform="translate(0 0.494629)"/>
</clipPath>
</defs>
</svg>
