<svg xmlns="http://www.w3.org/2000/svg" version="1.1" xmlns:xlink="http://www.w3.org/1999/xlink" xmlns:svgjs="http://svgjs.dev/svgjs" width="1000" height="1000"><g clip-path="url(#SvgjsClipPath1192)"><rect width="1000" height="1000" fill="#f4c000"></rect><g transform="matrix(4.375,0,0,4.375,150,447.5)"><svg xmlns="http://www.w3.org/2000/svg" version="1.1" xmlns:xlink="http://www.w3.org/1999/xlink" xmlns:svgjs="http://svgjs.dev/svgjs" width="160" height="24"><svg width="160" height="24" viewBox="0 0 160 24" fill="none" xmlns="http://www.w3.org/2000/svg">
<g clip-path="url(#clip0_905_793)">
<path d="M12.482 0C8.93123 0 6.0374 1.16347 3.80051 3.49041C1.56362 5.81734 0.446198 8.66513 0.448245 12.0338C0.448245 15.3799 1.57385 18.2103 3.82507 20.5249C6.07628 22.8396 8.96398 23.998 12.4882 24C16.0655 24 18.9717 22.8478 21.2065 20.5434C23.4413 18.2389 24.5588 15.4024 24.5588 12.0338C24.5588 8.64057 23.4413 5.78665 21.2065 3.47199C18.9717 1.15733 16.0635 0 12.482 0ZM18.2073 17.6546C16.744 19.2059 14.8356 19.9816 12.482 19.9816C10.1285 19.9816 8.2354 19.2059 6.80281 17.6546C5.39635 16.1066 4.61709 14.09 4.61709 11.9985C4.61709 9.90689 5.39635 7.89036 6.80281 6.34229C8.25177 4.79304 10.1448 4.01842 12.482 4.01842C14.8192 4.01842 16.7276 4.79202 18.2073 6.33922C19.6118 7.88824 20.3898 9.90442 20.3898 11.9954C20.3898 14.0864 19.6118 16.1026 18.2073 17.6516V17.6546Z" fill="white"></path>
<path d="M32.6295 0.481445H28.5037V23.5175H44.9733V19.496H32.6295V0.481445Z" fill="white"></path>
<path d="M56.3563 0.481445L46.6587 23.5052H51.199L53.4338 17.9795H63.7147L65.9833 23.5052H70.6249L60.8935 0.481445H56.3563ZM54.9473 14.2343L58.5206 5.36249L62.1675 14.2343H54.9473Z" fill="white"></path>
<path d="M92.0096 0.481448H82.5208V23.4837H92.0096C95.3803 23.4837 98.1544 22.4001 100.332 20.2328C102.51 18.0655 103.598 15.3323 103.598 12.0333V11.9289C103.598 8.62982 102.51 5.89664 100.332 3.72934C98.1544 1.56203 95.3803 0.479402 92.0096 0.481448ZM99.4386 12.0333C99.4386 14.2333 98.7387 16.0271 97.3389 17.4147C95.939 18.8022 94.1401 19.495 91.9421 19.493H86.6466V4.50294H91.9421C94.1442 4.50294 95.9431 5.19058 97.3389 6.56587C98.7346 7.94116 99.4345 9.72883 99.4386 11.9289V12.0333Z" fill="white"></path>
<path d="M118.487 0C114.932 0 112.037 1.16347 109.802 3.49041C107.567 5.81734 106.45 8.66513 106.45 12.0338C106.45 15.3799 107.576 18.2103 109.827 20.5249C112.078 22.8396 114.967 23.998 118.493 24C122.066 24 124.971 22.8478 127.208 20.5434C129.445 18.2389 130.563 15.4024 130.56 12.0338C130.56 8.64057 129.443 5.78665 127.208 3.47199C124.973 1.15733 122.066 0 118.487 0ZM124.209 17.6546C122.754 19.2059 120.846 19.9816 118.487 19.9816C116.127 19.9816 114.23 19.208 112.795 17.6608C111.391 16.1118 110.613 14.0956 110.613 12.0046C110.613 9.91363 111.391 7.89745 112.795 6.34842C114.25 4.80123 116.148 4.02763 118.487 4.02763C120.826 4.02763 122.733 4.80123 124.209 6.34842C125.615 7.89649 126.395 9.91304 126.395 12.0046C126.395 14.0962 125.615 16.1127 124.209 17.6608V17.6546Z" fill="white"></path>
<path d="M155.426 0.481445V0.527493L155.402 0.487585L146.8 5.89664H146.794L138.202 0.490655V0.481445H134.076V23.5175H138.202V5.36556L144.848 9.54975V23.5175H148.974V9.40547L155.426 5.34407V23.5175H159.552V0.481445H155.426Z" fill="white"></path>
</g>
<defs>
<clipPath id="clip0_905_793">
<rect width="159.104" height="24" fill="white" transform="translate(0.448242)"></rect>
</clipPath>
<clipPath id="SvgjsClipPath1192"><rect width="1000" height="1000" x="0" y="0" rx="350" ry="350"></rect></clipPath></defs>
</svg></svg></g></g></svg>